<svg xmlns="http://www.w3.org/2000/svg" width="178" height="200" viewBox="0 0 178 200" version="1.1"><path d="M 173.473 2.357 C 168.380 5.860, 139.122 20.866, 136.166 21.491 C 133.180 22.122, 132.900 22.466, 133.484 24.792 C 134.802 30.045, 136.895 33.885, 139.297 35.459 C 142.623 37.638, 145.792 36.484, 163.823 26.527 L 178 18.699 178 9.849 C 178 0.491, 177.467 -0.391, 173.473 2.357" stroke="none" fill="#047c54" fill-rule="evenodd"/><path d="M 56.500 9.915 C 33.103 15.822, 12.820 30.648, 3.940 48.334 C -0.041 56.263, -0.150 56.747, 0.170 65.025 C 0.858 82.793, 10.918 94.747, 29.932 100.388 C 38.676 102.983, 57.437 102.585, 69.396 99.552 C 92.359 93.726, 133.798 73.865, 168.500 52.052 L 177.500 46.394 177.784 35.697 C 177.940 29.814, 177.908 25, 177.712 25 C 177.517 25, 168.401 29.950, 157.455 36 C 146.508 42.050, 137.315 46.987, 137.026 46.971 C 136.737 46.956, 132.867 38.743, 128.426 28.721 L 120.353 10.500 107.433 10.500 L 94.514 10.500 77.306 42.500 C 67.841 60.100, 60.075 74.889, 60.049 75.365 C 59.987 76.467, 69.264 75.327, 75.413 73.476 C 78.002 72.697, 82.372 70.834, 85.125 69.335 C 90.464 66.430, 90.688 66.056, 101.992 41.250 C 103.809 37.263, 105.567 34.003, 105.898 34.006 C 106.373 34.011, 112.070 47.694, 115.506 57.083 C 116.536 59.895, 80.630 75.671, 65.500 79.054 C 47.610 83.054, 32.488 83.928, 24.126 81.445 C 14.489 78.583, 12.772 73.919, 17.681 63.946 C 21.206 56.787, 33.567 44.471, 42.500 39.218 C 50.877 34.293, 65.516 29.229, 73.918 28.351 C 77.263 28.001, 79.995 27.442, 79.989 27.108 C 79.962 25.590, 77 16.901, 75.562 14.119 C 73.800 10.713, 69.355 7.960, 65.800 8.074 C 64.535 8.114, 60.350 8.943, 56.500 9.915 M 134.520 74.034 C 129.581 76.700, 125.392 79.325, 125.211 79.868 C 124.694 81.417, 131.063 96.249, 133.319 98.750 C 135.223 100.861, 136.142 101, 148.174 101 C 155.228 101, 161.005 100.662, 161.010 100.250 C 161.016 99.838, 157.759 92.638, 153.772 84.250 C 148.978 74.163, 146.012 69.032, 145.012 69.093 C 144.180 69.145, 139.459 71.368, 134.520 74.034 M 1.417 111.355 C 1.131 112.101, 1.033 115.588, 1.199 119.105 L 1.500 125.500 83.750 125.756 L 166 126.012 166 118.006 L 166 110 83.969 110 C 15.866 110, 1.849 110.230, 1.417 111.355 M 26 139.360 C 4.456 145.225, -5.786 164.762, 3.622 182.047 C 13.283 199.798, 38.338 204.961, 60.676 193.805 C 63.054 192.617, 65 191.153, 65 190.551 C 65 189.948, 63.652 187.820, 62.004 185.822 L 59.009 182.188 53.254 185.344 C 48.001 188.225, 46.717 188.500, 38.500 188.500 C 30.462 188.500, 28.995 188.203, 24.777 185.723 C 21.784 183.964, 19.085 181.295, 17.412 178.440 C 15.131 174.548, 14.826 173.069, 15.175 167.587 C 15.497 162.533, 16.159 160.481, 18.423 157.512 C 25.093 148.767, 40.275 146.240, 51.609 151.987 C 54.849 153.630, 57.776 154.980, 58.114 154.987 C 59.199 155.010, 64.210 147.148, 63.668 146.272 C 62.774 144.825, 54.071 140.838, 48.664 139.399 C 42.372 137.724, 32.076 137.706, 26 139.360 M 76 169 L 76 199.091 82.750 198.796 L 89.500 198.500 89.500 169 L 89.500 139.500 82.750 139.204 L 76 138.909 76 169 M 106.453 140.263 C 106.186 140.957, 106.088 154.345, 106.234 170.013 L 106.500 198.500 129.500 198.500 C 152.362 198.500, 152.534 198.484, 158.224 195.817 C 165.129 192.581, 167.993 188.531, 167.993 182 C 167.993 176.752, 165.195 171.502, 161.502 169.819 C 158.504 168.453, 158.343 167.422, 160.913 166.047 C 161.965 165.484, 163.607 162.978, 164.561 160.479 C 166.008 156.690, 166.104 155.290, 165.136 152.060 C 163.631 147.037, 158.374 142.486, 151.833 140.543 C 144.977 138.507, 107.216 138.274, 106.453 140.263 M 120 156.500 L 120 163 132.453 163 C 148.581 163, 152.292 161.284, 150.614 154.599 C 149.701 150.959, 145.914 150, 132.453 150 L 120 150 120 156.500 M 120 181 L 120 188 132.851 188 C 139.919 188, 147.057 187.528, 148.713 186.950 C 152.104 185.768, 154.143 182.265, 153.306 179.061 C 152.256 175.046, 148.173 174, 133.550 174 L 120 174 120 181" stroke="none" fill="#5c6c74" fill-rule="evenodd"/></svg>